<?xml version="1.0" encoding="utf-8"?>
<!-- Generator: Adobe Illustrator 27.5.0, SVG Export Plug-In . SVG Version: 6.00 Build 0)  -->
<svg version="1.1" xmlns="http://www.w3.org/2000/svg" xmlns:xlink="http://www.w3.org/1999/xlink" x="0px" y="0px"
	 viewBox="0 0 657.5 392.3" style="enable-background:new 0 0 657.5 392.3;" xml:space="preserve">
<style type="text/css">
	.st0{fill:#1E1E1E;}
	.st1{font-family:'Virgil3YOFF';}
	.st2{font-size:20px;}
	.st3{fill:none;stroke:#1E1E1E;stroke-width:2;stroke-linecap:round;}
	.st4{fill:none;stroke:#1E1E1E;stroke-width:2.5;stroke-linecap:round;stroke-dasharray:8,10;}
	.st5{fill:none;stroke:#1E1E1E;stroke-width:2.5;stroke-linecap:round;}
	.st6{opacity:0.35;fill:#0033CC;stroke:#1E1E1E;stroke-width:2;stroke-linecap:round;}
</style>
<g id="Layer_1">
	<g transform="translate(281.8861389160156 94.49609375) rotate(0 19.989990234375 12.5)">
		<text transform="matrix(1 0 0 1 0 17.52)" class="st0 st1 st2">IDE</text>
	</g>
	<g transform="translate(251.79022979736328 149.4794921875) rotate(0 50.749961853027344 25)">
		<text transform="matrix(1 0 0 1 0 17.52)" class="st0 st1 st2">Packages/</text>
		<text transform="matrix(1 0 0 1 0 42.52)" class="st0 st1 st2">Libraries</text>
	</g>
	<g transform="translate(195.4102783203125 229.162109375) rotate(0 107.12991333007812 12.5)">
		<text transform="matrix(1 0 0 1 0 17.52)" class="st0 st1 st2">Programming Language</text>
	</g>
	<g transform="translate(192.06169891357422 283.8447265625) rotate(0 110.6698989868164 12.5)">
		<text transform="matrix(1 0 0 1 0 17.52)" class="st0 st1 st2">Operating System (OS)</text>
	</g>
	<g transform="translate(178.6328125 338.52734375) rotate(0 122.46987915039062 12.5)">
		<text transform="matrix(1 0 0 1 0 17.52)" class="st0 st1 st2">Computer/Infrastructure</text>
	</g>
	<g>
		<g transform="translate(303.9765625 16.921875) rotate(0 -92.77734375 182.455078125)">
			<path class="st3" d="M-0.9,0.6c-30.9,61-153.9,304.3-184.6,364.9 M0.9-0.2c-31,60.7-156.1,302.9-187.2,363.7"/>
		</g>
	</g>
	<g>
		<g transform="translate(236.94921875 130.46875) rotate(0 63.099609375 0)">
			<path class="st3" d="M0.5-0.9C21.7-1.2,106.3-1,127.3-0.6 M-0.7,1.2C20.5,1,105.8,0.9,126.9,0.5"/>
		</g>
	</g>
	<g>
		<g transform="translate(308.15227982602084 20.46875) rotate(0 86.73242187500001 178.888671875)">
			<path class="st3" d="M-0.2-0.7c29.1,59.6,144.9,299.5,173.7,359.1 M-1.7,1.6c29,59.1,144.8,295.8,174.3,355.1"/>
		</g>
	</g>
	<g>
		<g transform="translate(197.54296875 217.46484375) rotate(0 104.83984375 -0.7109375)">
			<path class="st3" d="M-0.9,0.6c34.7-0.4,174.3-2.9,209.6-3.1 M0.9-0.1c35-0.3,175.1-1,210-1.4"/>
		</g>
	</g>
	<g>
		<g transform="translate(171.55078125 275.21875) rotate(0 129.466796875 0)">
			<path class="st3" d="M-0.4,0.6c43.3,0.4,216.6,0.6,260,0.6 M1.6-0.1c43.2,0.2,214.4,0.1,257.4-0.2"/>
		</g>
	</g>
	<g>
		<g transform="translate(141.0625 318.32421875) rotate(0 157.169921875 0.728515625)">
			<path class="st3" d="M-1.2-0.8c52,0.5,261.8,2.8,314.4,3 M0.4,1.4c52.3,0.3,262.8-0.9,315-0.9"/>
		</g>
	</g>
	<g>
		<g transform="translate(124.85546875000003 374.64453125) rotate(0 176.984375 0)">
			<path class="st3" d="M1.2,1.8c58.6,0.2,293-0.4,351.7-0.7"/>
		</g>
	</g>
	<g>
		<g transform="translate(113.27945995557008 79.28125) rotate(0 27.713785647214962 24.75390625)">
			<path class="st4" d="M1-1.1c9.4,8.4,46.1,42.5,55.1,50.8"/>
		</g>
		<g transform="translate(113.27945995557008 79.28125) rotate(0 27.713785647214962 24.75390625)">
			<path class="st5" d="M33.1,40c5.2,3.9,14.4,5.3,23.1,9.7"/>
		</g>
		<g transform="translate(113.27945995557008 79.28125) rotate(0 27.713785647214962 24.75390625)">
			<path class="st5" d="M44.7,27.5c1.7,7.9,7.2,13.1,11.5,22.2"/>
		</g>
	</g>
	<g transform="translate(10 10.77734375) rotate(0 53.416015625 33.751953125)">
		<path class="st4" d="M16.9,0c18.9-2,33.1-0.4,73.1,0 M90,0c12.1-1.1,17.6,6.4,16.9,16.9 M106.8,16.9c0.1,11.5,0.6,18.4,0,33.8
			 M106.8,50.6c-1.5,10.6-4.9,16.5-16.9,16.9 M90,67.5c-16.2-0.8-32,0.8-73.1,0 M16.9,67.5C5.8,67.2-0.5,62.8,0,50.6 M0,50.6
			C-0.9,38-0.8,25.1,0,16.9 M0,16.9C-0.2,5.1,4.9,2,16.9,0"/>
	</g>
	<g transform="translate(36.62602996826172 32.029296875) rotate(0 26.78998565673828 12.5)">
		<text transform="matrix(1 0 0 1 2.822558e-04 17.52)" class="st0 st1 st2">Data</text>
	</g>
	<g>
		<g transform="translate(463.4140625 222.97265625) rotate(0 18.48828125 -12.142578125)">
			<path class="st4" d="M0.6-0.3c6-4,29.5-19,35.8-23"/>
		</g>
		<g transform="translate(463.4140625 222.97265625) rotate(0 18.48828125 -12.142578125)">
			<path class="st5" d="M22.9-5.8c4-7.2,10.8-10.5,13.4-17.6"/>
		</g>
		<g transform="translate(463.4140625 222.97265625) rotate(0 18.48828125 -12.142578125)">
			<path class="st5" d="M14.8-18.5c6.9-2.8,16.6-1.6,21.6-4.8"/>
		</g>
	</g>
	<g transform="translate(499.171875 10) rotate(0 74.185546875 20.828125)">
		<path class="st4" d="M10.4,0c36,2.1,70.8,1.5,127.6,0 M138,0c6.4-1.8,12.2,5.4,10.4,10.4 M148.4,10.4c0,2.8,1,7,0,20.8
			 M148.4,31.2c-1.6,6.9-4.9,9.2-10.4,10.4 M138,41.7c-43.3,0.7-89.8,1.3-127.6,0 M10.4,41.7C1.5,40.7-1.9,37,0,31.2 M0,31.2
			c-1.7-5.2,0.6-13.1,0-20.8 M0,10.4C-1.2,2.7,3.4,0.9,10.4,0"/>
	</g>
	<g transform="translate(550.2174453735352 18.328125) rotate(0 23.139976501464844 12.5)">
		<text transform="matrix(1 0 0 1 3.054375e-04 17.52)" class="st0 st1 st2">Code</text>
	</g>
	<g transform="translate(501.767578125 66.51953125) rotate(0 71.83984375 70.931640625)">
		<path class="st4" d="M32,0c29.6-0.2,58.6,0.1,79.7,0 M111.7,0c21.9,1.1,33.3,8.8,32,32 M143.7,32c-0.5,26.7,0.7,52,0,77.9
			 M143.7,109.9c-1.3,20.4-10.7,31.6-32,32 M111.7,141.9c-23.3,0.6-45.9-0.2-79.7,0 M32,141.9c-22.9-1.3-33.3-10-32-32 M0,109.9
			C1.5,79.9,0.5,49.9,0,32 M0,32C-1,10.4,9.2-1.9,32,0"/>
	</g>
	<g transform="translate(514.6974868774414 74.951171875) rotate(0 58.909934997558594 62.5)">
		<text transform="matrix(1 0 0 1 14.8303 17.52)" class="st0 st1 st2">Research</text>
		<text transform="matrix(1 0 0 1 24.0604 42.52)" class="st0 st1 st2">Output</text>
		<text transform="matrix(1 0 0 1 8.9905 67.52)" class="st0 st1 st2">(a number,</text>
		<text transform="matrix(1 0 0 1 9.152929e-04 92.52)" class="st0 st1 st2">plot(s), live-</text>
		<text transform="matrix(1 0 0 1 9.9105 117.52)" class="st0 st1 st2">ML-MoCap</text>
	</g>
	<g>
		<g transform="translate(436.390625 81.7109375) rotate(0 29.8203125 -16.2890625)">
			<path class="st4" d="M-0.6-0.4c9.9-5.6,49.6-28,59.5-33.3"/>
		</g>
		<g transform="translate(436.390625 81.7109375) rotate(0 29.8203125 -16.2890625)">
			<path class="st5" d="M42.5-14.8c3.4-5.7,6-10.3,16.4-18.9"/>
		</g>
		<g transform="translate(436.390625 81.7109375) rotate(0 29.8203125 -16.2890625)">
			<path class="st5" d="M34.2-29.8c5.3-2.1,10-3.1,24.7-3.9"/>
		</g>
	</g>
	<polygon class="st6" points="202.9,214.8 246.7,129.8 359.8,131 399.3,214.1 	"/>
</g>
<g id="Layer_2">
</g>
</svg>
